<svg width="323" height="425" viewBox="0 0 323 425" fill="none" xmlns="http://www.w3.org/2000/svg">
<g clip-path="url(#clip0)">
<path d="M161.5 62V93.875H193.375V81.125H174.25V62H161.5Z" fill="url(#paint0_linear)"/>
<path d="M220.736 65.1684C217.861 58.3474 213.686 52.1507 208.446 46.9231C200.512 38.9898 190.428 33.5554 179.439 31.2916C171.812 29.7392 163.951 29.7392 156.323 31.2916C145.325 33.5409 135.232 38.9798 127.305 46.9295C122.076 52.1626 117.903 58.3526 115.014 65.162C112.024 72.2294 110.489 79.8265 110.5 87.5L110.506 87.6594H97.75L116.875 113L136 87.6594H123.256L123.25 87.5C123.232 78.6093 125.886 69.9182 130.868 62.5546C134.082 57.8032 138.174 53.7094 142.923 50.4931C147.755 47.2381 153.175 44.9558 158.88 43.7739C170.473 41.3903 182.538 43.7078 192.423 50.2169C202.308 56.726 209.204 66.8941 211.595 78.4858C212.797 84.4265 212.797 90.548 211.595 96.4887C210.428 102.198 208.145 107.621 204.876 112.445C203.282 114.81 201.452 117.035 199.431 119.05C195.359 123.117 190.544 126.366 185.247 128.619C182.549 129.759 179.745 130.63 176.876 131.22C170.938 132.421 164.819 132.421 158.88 131.22C153.176 130.05 147.758 127.769 142.936 124.507C140.564 122.904 138.351 121.079 136.325 119.056L127.311 128.07C132.635 133.402 138.958 137.63 145.919 140.514C152.88 143.397 160.341 144.879 167.875 144.875C175.544 144.872 183.136 143.34 190.207 140.368C200.455 136.032 209.223 128.812 215.445 119.585C221.849 110.111 225.264 98.935 225.25 87.5C225.266 79.828 223.731 72.232 220.736 65.1684V65.1684Z" fill="url(#paint1_linear)"/>
<path d="M161 367.223C140.229 351.227 91.3885 362.409 69.5644 370L69 232.813C120.023 210.152 151.593 222.63 161 231.702V367.223Z" fill="#3DD1FE" stroke="black"/>
<path d="M251 367.223C231.358 351.227 185.172 362.409 164.534 370L164 232.813C212.25 210.152 242.104 222.63 251 231.702V367.223Z" fill="#3DD1FE" stroke="black"/>
<path fill-rule="evenodd" clip-rule="evenodd" d="M101.175 215.4C121.162 211.4 147.45 210.875 165.425 228.825C166.005 229.406 166.465 230.097 166.778 230.856C167.091 231.615 167.251 232.429 167.25 233.25V370.75C167.252 371.988 166.887 373.198 166.2 374.228C165.514 375.258 164.537 376.061 163.393 376.535C162.25 377.009 160.991 377.133 159.778 376.89C158.564 376.648 157.449 376.051 156.575 375.175C146.037 364.625 130.137 361.937 113.2 363.675C96.4 365.425 79.95 371.387 70.05 376.337C69.0971 376.815 68.038 377.041 66.9732 376.994C65.9085 376.946 64.8735 376.628 63.9666 376.068C63.0597 375.508 62.3111 374.725 61.7919 373.795C61.2726 372.864 61 371.816 61 370.75V233.25C61 232.09 61.3228 230.953 61.932 229.967C62.5413 228.98 63.4132 228.182 64.45 227.662L64.475 227.65L64.525 227.625L64.6875 227.55C65.5936 227.099 66.5106 226.669 67.4375 226.262C78.2561 221.418 89.5739 217.775 101.187 215.4H101.175ZM73.5 237.25V361.1C84.075 356.812 97.8 352.7 111.925 351.25C126.212 349.775 141.762 350.962 154.75 358.25V235.975C141.462 224.362 121.862 224.025 103.625 227.675C93.2731 229.793 83.175 233.003 73.5 237.25Z" fill="url(#paint2_linear)"/>
<path fill-rule="evenodd" clip-rule="evenodd" d="M220.825 215.4C200.85 211.4 174.55 210.875 156.575 228.825C155.995 229.406 155.535 230.097 155.222 230.856C154.909 231.615 154.749 232.429 154.75 233.25V370.75C154.748 371.988 155.113 373.198 155.8 374.228C156.486 375.258 157.463 376.061 158.607 376.535C159.75 377.009 161.009 377.133 162.222 376.89C163.436 376.648 164.551 376.051 165.425 375.175C175.963 364.625 191.863 361.937 208.8 363.675C225.6 365.425 242.05 371.387 251.95 376.337C252.903 376.815 253.962 377.041 255.027 376.994C256.092 376.946 257.127 376.628 258.033 376.068C258.94 375.508 259.689 374.725 260.208 373.795C260.727 372.864 261 371.816 261 370.75V233.25C261 232.09 260.677 230.953 260.068 229.967C259.459 228.98 258.587 228.182 257.55 227.662L254.75 233.25L257.55 227.662L257.525 227.65L257.475 227.625L257.313 227.55L256.725 227.262C253.446 225.731 250.115 224.314 246.738 223.012C238.327 219.758 229.659 217.212 220.825 215.4V215.4ZM248.5 237.25V361.1C237.925 356.812 224.2 352.7 210.075 351.25C195.788 349.775 180.238 350.962 167.25 358.25V235.975C180.538 224.362 200.138 224.025 218.375 227.675C228.727 229.793 238.825 233.002 248.5 237.25V237.25Z" fill="url(#paint3_linear)"/>
<g clip-path="url(#clip1)">
<path fill-rule="evenodd" clip-rule="evenodd" d="M115.562 310.455C109.185 310.751 102.835 309.467 97.074 306.718L98.2399 304.869C103.679 307.293 109.616 308.391 115.562 308.074C115.562 308.276 115.808 304.295 116.166 302.126H107.777C108.448 293.922 111.006 285.985 115.254 278.935H90.1102V317.207H116.526C116.065 314.978 115.744 312.723 115.562 310.455V310.455Z" fill="#C6E9FA"/>
<path fill-rule="evenodd" clip-rule="evenodd" d="M118.094 307.936C121.969 307.694 125.743 306.6 129.147 304.731L130.594 306.58C126.734 308.686 122.476 309.959 118.094 310.32C118.214 312.652 118.579 314.965 119.181 317.222H137.267V278.945H118.015C114.004 285.169 111.499 292.243 110.698 299.604H119.341C118.618 302.323 118.2 305.113 118.094 307.924V307.936Z" fill="#00ADEE"/>
<path fill-rule="evenodd" clip-rule="evenodd" d="M101.536 284.733H103.988V290.4H101.536V284.733Z" fill="#00ADEE"/>
<path fill-rule="evenodd" clip-rule="evenodd" d="M121.954 284.733H124.404V290.4H121.954V284.733Z" fill="#231F20"/>
<path fill-rule="evenodd" clip-rule="evenodd" d="M118.093 307.936C121.969 307.694 125.743 306.6 129.147 304.731L130.594 306.58C126.734 308.686 122.475 309.959 118.093 310.32C118.286 314.692 119.424 318.97 121.431 322.859L119.341 323.959C115.522 317.932 114.84 309.812 116.166 302.136H107.777C108.648 291.117 112.944 280.647 120.063 272.193L121.872 273.761C115.599 281.034 111.7 290.051 110.698 299.604H119.341C118.618 302.323 118.2 305.113 118.093 307.924V307.936Z" fill="#231F20"/>
<path fill-rule="evenodd" clip-rule="evenodd" d="M115.562 308.084V310.455C109.186 310.751 102.835 309.467 97.0742 306.718L98.2401 304.869C103.679 307.293 109.616 308.391 115.562 308.074V308.084Z" fill="#00ADEE"/>
</g>
<path d="M191.5 317V277C191.5 274.25 194.125 272 197.333 272H220.667C223.875 272 226.5 274.25 226.5 277V317C226.5 319.75 223.875 322 220.667 322H197.333C194.125 322 191.5 319.75 191.5 317Z" fill="#00ADEE"/>
<path d="M220.667 275.75H197.333C196.458 275.75 195.875 276.25 195.875 277V313.25C195.875 314 196.458 314.5 197.333 314.5H220.667C221.542 314.5 222.125 314 222.125 313.25V277C222.125 276.25 221.542 275.75 220.667 275.75Z" fill="#C6E9FA"/>
<path d="M209 320.125C210.208 320.125 211.188 319.286 211.188 318.25C211.188 317.214 210.208 316.375 209 316.375C207.792 316.375 206.812 317.214 206.812 318.25C206.812 319.286 207.792 320.125 209 320.125Z" fill="#231F20"/>
<path d="M83.5 253.5H145" stroke="url(#paint4_linear)"/>
<path d="M84 264H145.5" stroke="url(#paint5_linear)"/>
<path d="M85 331H146.5" stroke="url(#paint6_linear)"/>
<path d="M85 343H146.5" stroke="url(#paint7_linear)"/>
<path d="M174 254H235.5" stroke="url(#paint8_linear)"/>
<path d="M174.5 264.5H236" stroke="url(#paint9_linear)"/>
<path d="M175.5 331.5H237" stroke="url(#paint10_linear)"/>
<path d="M175.5 343.5H237" stroke="url(#paint11_linear)"/>
<path d="M84.0694 238.653C87.3308 239.305 90.7788 239.361 94.0903 239.052C96.8463 238.795 99.433 237.517 102.184 237.382C107.535 237.121 109.229 243.67 113.875 245.219C116.123 245.969 118.754 245.494 120.955 244.819C123.336 244.09 125.802 243.771 128.207 243.121C131.755 242.161 135.325 240.986 138.656 239.424C141.922 237.891 144.988 237.625 148.563 237.625" stroke="url(#paint12_linear)" stroke-linecap="round" stroke-linejoin="round"/>
<path d="M176.056 244.306C178.839 242.42 181.306 241.953 184.592 241.993C187.298 242.026 189.292 243.816 191.315 245.448C196.778 249.853 199.815 239.08 205.29 240.508C207.092 240.978 208.545 243.641 209.972 244.762C212.291 246.584 216.577 245.847 219.308 245.847C221.015 245.847 223.024 246.137 224.632 245.519C226.897 244.648 228.702 242.311 230.485 240.751C232.107 239.332 233.666 237.865 235.41 236.597" stroke="url(#paint13_linear)" stroke-linecap="round" stroke-linejoin="round"/>
<path d="M42.08 175.4H38.36V171.44H49.88V175.4H46.16V188H42.08V175.4ZM50.5944 171.44H54.6744V177.8H59.4744V171.44H63.5544V188H59.4744V181.64H54.6744V188H50.5944V171.44ZM64.2819 171.44H74.7459V175.4H68.3619V177.8H72.6819V181.64H68.3619V184.04H74.7459V188H64.2819V171.44ZM80.2663 171.44H84.3463V177.8H89.1463V171.44H93.2263V188H89.1463V181.64H84.3463V188H80.2663V171.44ZM93.9538 171.44H98.0338V188H93.9538V171.44ZM98.7344 184.04H103.606C104.086 184.04 104.446 183.944 104.686 183.752C104.942 183.544 105.07 183.288 105.07 182.984C105.07 182.68 104.958 182.424 104.734 182.216C104.526 181.992 104.262 181.824 103.942 181.712C102.678 181.296 101.79 180.976 101.278 180.752C100.782 180.528 100.35 180.224 99.9824 179.84C99.1184 178.96 98.6864 177.816 98.6864 176.408C98.6864 175.16 99.0144 174.104 99.6704 173.24C100.342 172.36 101.238 171.808 102.358 171.584C102.678 171.52 103.046 171.48 103.462 171.464C103.894 171.448 104.366 171.44 104.878 171.44H107.11V175.4H104.038C103.622 175.4 103.302 175.496 103.078 175.688C102.87 175.88 102.766 176.128 102.766 176.432C102.766 177.072 103.126 177.496 103.846 177.704C104.902 178.008 105.702 178.272 106.246 178.496C106.806 178.72 107.294 179.008 107.71 179.36C108.19 179.776 108.55 180.296 108.79 180.92C109.03 181.528 109.15 182.184 109.15 182.888C109.15 183.88 108.926 184.768 108.478 185.552C108.03 186.32 107.414 186.92 106.63 187.352C105.862 187.784 105.014 188 104.086 188H98.7344V184.04ZM111.549 175.4H107.829V171.44H119.349V175.4H115.629V188H111.549V175.4ZM127.292 188.36C125.708 188.36 124.252 187.976 122.924 187.208C121.612 186.44 120.572 185.392 119.804 184.064C119.036 182.736 118.652 181.28 118.652 179.696C118.652 178.128 119.036 176.688 119.804 175.376C120.572 174.048 121.612 173 122.924 172.232C124.252 171.464 125.708 171.08 127.292 171.08C128.876 171.08 130.332 171.464 131.66 172.232C132.988 173 134.036 174.048 134.804 175.376C135.588 176.688 135.98 178.128 135.98 179.696C135.98 181.28 135.588 182.736 134.804 184.064C134.036 185.392 132.988 186.44 131.66 187.208C130.332 187.976 128.876 188.36 127.292 188.36ZM127.316 184.376C128.132 184.376 128.892 184.168 129.596 183.752C130.3 183.336 130.86 182.776 131.276 182.072C131.692 181.352 131.9 180.576 131.9 179.744C131.9 178.912 131.692 178.144 131.276 177.44C130.86 176.72 130.3 176.144 129.596 175.712C128.892 175.28 128.132 175.064 127.316 175.064C126.484 175.064 125.716 175.28 125.012 175.712C124.308 176.128 123.748 176.696 123.332 177.416C122.932 178.136 122.732 178.912 122.732 179.744C122.732 180.576 122.932 181.352 123.332 182.072C123.748 182.776 124.308 183.336 125.012 183.752C125.716 184.168 126.484 184.376 127.316 184.376ZM136.493 171.44H139.133C140.461 171.44 141.461 171.472 142.133 171.536C143.221 171.648 144.189 171.968 145.037 172.496C145.901 173.024 146.573 173.72 147.053 174.584C147.533 175.432 147.773 176.384 147.773 177.44C147.773 178.368 147.581 179.192 147.197 179.912C146.813 180.632 146.269 181.232 145.565 181.712C146.333 182.272 146.917 182.992 147.317 183.872C147.733 184.752 147.941 185.768 147.941 186.92V188H143.861V186.92C143.861 186.312 143.717 185.752 143.429 185.24C143.157 184.728 142.773 184.32 142.277 184.016C141.781 183.712 141.229 183.56 140.621 183.56H140.573V188H136.493V171.44ZM140.621 179.72C141.549 179.72 142.293 179.552 142.853 179.216C143.413 178.88 143.693 178.328 143.693 177.56C143.693 176.776 143.405 176.2 142.829 175.832C142.253 175.464 141.517 175.28 140.621 175.28H140.573V179.72H140.621ZM150.654 179.84L146.214 171.44H150.534L152.694 175.52L154.854 171.44H159.174L154.734 179.84V188H150.654V179.84ZM172.526 188.36C170.942 188.36 169.486 187.976 168.158 187.208C166.846 186.44 165.806 185.392 165.038 184.064C164.27 182.736 163.886 181.28 163.886 179.696C163.886 178.128 164.27 176.688 165.038 175.376C165.806 174.048 166.846 173 168.158 172.232C169.486 171.464 170.942 171.08 172.526 171.08C174.11 171.08 175.566 171.464 176.894 172.232C178.222 173 179.27 174.048 180.038 175.376C180.822 176.688 181.214 178.128 181.214 179.696C181.214 181.28 180.822 182.736 180.038 184.064C179.27 185.392 178.222 186.44 176.894 187.208C175.566 187.976 174.11 188.36 172.526 188.36ZM172.55 184.376C173.366 184.376 174.126 184.168 174.83 183.752C175.534 183.336 176.094 182.776 176.51 182.072C176.926 181.352 177.134 180.576 177.134 179.744C177.134 178.912 176.926 178.144 176.51 177.44C176.094 176.72 175.534 176.144 174.83 175.712C174.126 175.28 173.366 175.064 172.55 175.064C171.718 175.064 170.95 175.28 170.246 175.712C169.542 176.128 168.982 176.696 168.566 177.416C168.166 178.136 167.966 178.912 167.966 179.744C167.966 180.576 168.166 181.352 168.566 182.072C168.982 182.776 169.542 183.336 170.246 183.752C170.95 184.168 171.718 184.376 172.55 184.376ZM181.727 171.44H192.167V175.4H185.807V177.8H190.127V181.64H185.807V188H181.727V171.44ZM205.652 188C204.484 188 203.516 187.904 202.748 187.712C201.596 187.408 200.556 186.872 199.628 186.104C198.7 185.32 197.972 184.376 197.444 183.272C196.916 182.152 196.652 180.968 196.652 179.72C196.652 178.456 196.916 177.272 197.444 176.168C197.972 175.048 198.7 174.104 199.628 173.336C200.556 172.552 201.604 172.016 202.772 171.728C203.524 171.536 204.484 171.44 205.652 171.44H205.892V175.4H205.652C204.356 175.4 203.324 175.664 202.556 176.192C202.012 176.56 201.572 177.064 201.236 177.704C200.9 178.344 200.732 179.016 200.732 179.72C200.732 180.424 200.9 181.096 201.236 181.736C201.572 182.376 202.012 182.88 202.556 183.248C203.324 183.776 204.356 184.04 205.652 184.04H205.892V188H205.652ZM214.245 188.36C212.661 188.36 211.205 187.976 209.877 187.208C208.565 186.44 207.525 185.392 206.757 184.064C205.989 182.736 205.605 181.28 205.605 179.696C205.605 178.128 205.989 176.688 206.757 175.376C207.525 174.048 208.565 173 209.877 172.232C211.205 171.464 212.661 171.08 214.245 171.08C215.829 171.08 217.285 171.464 218.613 172.232C219.941 173 220.989 174.048 221.757 175.376C222.541 176.688 222.933 178.128 222.933 179.696C222.933 181.28 222.541 182.736 221.757 184.064C220.989 185.392 219.941 186.44 218.613 187.208C217.285 187.976 215.829 188.36 214.245 188.36ZM214.269 184.376C215.085 184.376 215.845 184.168 216.549 183.752C217.253 183.336 217.813 182.776 218.229 182.072C218.645 181.352 218.853 180.576 218.853 179.744C218.853 178.912 218.645 178.144 218.229 177.44C217.813 176.72 217.253 176.144 216.549 175.712C215.845 175.28 215.085 175.064 214.269 175.064C213.437 175.064 212.669 175.28 211.965 175.712C211.261 176.128 210.701 176.696 210.285 177.416C209.885 178.136 209.685 178.912 209.685 179.744C209.685 180.576 209.885 181.352 210.285 182.072C210.701 182.776 211.261 183.336 211.965 183.752C212.669 184.168 213.437 184.376 214.269 184.376ZM223.446 171.44H227.526C228.534 171.44 229.51 171.656 230.454 172.088C231.414 172.52 232.182 173.096 232.758 173.816C233.334 173.096 234.094 172.52 235.038 172.088C235.998 171.656 236.982 171.44 237.99 171.44H242.07V188H237.99V175.52H237.942C237.398 175.552 236.87 175.704 236.358 175.976C235.862 176.248 235.446 176.64 235.11 177.152C234.79 177.664 234.63 178.28 234.63 179V188H230.886V179C230.886 178.28 230.718 177.664 230.382 177.152C230.062 176.64 229.646 176.248 229.134 175.976C228.638 175.704 228.118 175.552 227.574 175.52H227.526V188H223.446V171.44ZM242.782 171.44H245.422C246.75 171.44 247.75 171.472 248.422 171.536C249.51 171.664 250.478 171.992 251.326 172.52C252.174 173.048 252.838 173.744 253.318 174.608C253.814 175.472 254.062 176.456 254.062 177.56C254.062 178.76 253.766 179.816 253.174 180.728C252.582 181.624 251.742 182.32 250.654 182.816C249.582 183.312 248.334 183.56 246.91 183.56H246.862V188H242.782V171.44ZM246.91 179.72C247.822 179.72 248.558 179.544 249.118 179.192C249.694 178.84 249.982 178.28 249.982 177.512C249.982 176.728 249.694 176.16 249.118 175.808C248.558 175.456 247.822 175.28 246.91 175.28H246.862V179.72H246.91ZM260.57 188.24C259.562 188.24 258.602 188.008 257.69 187.544C256.794 187.08 256.058 186.36 255.482 185.384C254.906 184.408 254.618 183.2 254.618 181.76V171.44H258.698V181.76C258.698 182.576 258.842 183.2 259.13 183.632C259.418 184.064 259.898 184.28 260.57 184.28C261.242 184.28 261.722 184.064 262.01 183.632C262.298 183.2 262.442 182.576 262.442 181.76V171.44H266.522V181.76C266.522 183.2 266.234 184.408 265.658 185.384C265.082 186.36 264.338 187.08 263.426 187.544C262.53 188.008 261.578 188.24 260.57 188.24ZM270.971 175.4H267.251V171.44H278.771V175.4H275.051V188H270.971V175.4ZM279.485 171.44H283.565V188H279.485V171.44ZM284.29 171.44C285.906 171.44 287.37 171.688 288.682 172.184C289.994 172.664 291.13 173.368 292.09 174.296V171.44H296.17V188H292.09V182.864C292.09 179.424 290.85 177.296 288.37 176.48V188H284.29V171.44ZM305.227 188C303.611 188 302.147 187.632 300.835 186.896C299.539 186.16 298.523 185.16 297.787 183.896C297.051 182.632 296.683 181.24 296.683 179.72C296.683 178.36 296.971 177.104 297.547 175.952C298.139 174.8 298.939 173.848 299.947 173.096C300.955 172.328 302.083 171.832 303.331 171.608C303.923 171.496 305.107 171.44 306.883 171.44H307.243V175.4H306.883C305.795 175.4 305.027 175.424 304.579 175.472C304.131 175.504 303.771 175.576 303.499 175.688C302.699 175.992 302.043 176.52 301.531 177.272C301.019 178.024 300.763 178.848 300.763 179.744C300.763 180.496 300.947 181.2 301.315 181.856C301.699 182.512 302.227 183.04 302.899 183.44C303.571 183.84 304.331 184.04 305.179 184.04H305.227V179.6H309.307V188H305.227Z" fill="url(#paint14_linear)"/>
</g>
<defs>
<linearGradient id="paint0_linear" x1="177.438" y1="62" x2="177.438" y2="93.875" gradientUnits="userSpaceOnUse">
<stop stop-color="#9C31FE"/>
<stop offset="1" stop-color="#0CB0D3"/>
</linearGradient>
<linearGradient id="paint1_linear" x1="161.5" y1="30.1273" x2="161.5" y2="144.875" gradientUnits="userSpaceOnUse">
<stop stop-color="#0CB0D3"/>
<stop offset="0.96875" stop-color="#9C31FE"/>
</linearGradient>
<linearGradient id="paint2_linear" x1="114.125" y1="213.114" x2="114.125" y2="377.011" gradientUnits="userSpaceOnUse">
<stop stop-color="#0CB0D3"/>
<stop offset="0.541667" stop-color="#9C31FE"/>
</linearGradient>
<linearGradient id="paint3_linear" x1="207.875" y1="213.114" x2="207.875" y2="377.011" gradientUnits="userSpaceOnUse">
<stop stop-color="#0CB0D3"/>
<stop offset="0.541667" stop-color="#9C31FE"/>
</linearGradient>
<linearGradient id="paint4_linear" x1="114.25" y1="253.5" x2="114.25" y2="254.5" gradientUnits="userSpaceOnUse">
<stop stop-color="#0CB0D3"/>
<stop offset="0.96875" stop-color="#9C31FE"/>
</linearGradient>
<linearGradient id="paint5_linear" x1="114.75" y1="264" x2="114.75" y2="265" gradientUnits="userSpaceOnUse">
<stop stop-color="#0CB0D3"/>
<stop offset="0.96875" stop-color="#9C31FE"/>
</linearGradient>
<linearGradient id="paint6_linear" x1="115.75" y1="331" x2="115.75" y2="332" gradientUnits="userSpaceOnUse">
<stop stop-color="#0CB0D3"/>
<stop offset="0.96875" stop-color="#9C31FE"/>
</linearGradient>
<linearGradient id="paint7_linear" x1="115.75" y1="343" x2="115.75" y2="344" gradientUnits="userSpaceOnUse">
<stop stop-color="#0CB0D3"/>
<stop offset="0.96875" stop-color="#9C31FE"/>
</linearGradient>
<linearGradient id="paint8_linear" x1="204.75" y1="254" x2="204.75" y2="255" gradientUnits="userSpaceOnUse">
<stop stop-color="#0CB0D3"/>
<stop offset="0.96875" stop-color="#9C31FE"/>
</linearGradient>
<linearGradient id="paint9_linear" x1="205.25" y1="264.5" x2="205.25" y2="265.5" gradientUnits="userSpaceOnUse">
<stop stop-color="#0CB0D3"/>
<stop offset="0.96875" stop-color="#9C31FE"/>
</linearGradient>
<linearGradient id="paint10_linear" x1="206.25" y1="331.5" x2="206.25" y2="332.5" gradientUnits="userSpaceOnUse">
<stop stop-color="#0CB0D3"/>
<stop offset="0.96875" stop-color="#9C31FE"/>
</linearGradient>
<linearGradient id="paint11_linear" x1="206.25" y1="343.5" x2="206.25" y2="344.5" gradientUnits="userSpaceOnUse">
<stop stop-color="#0CB0D3"/>
<stop offset="0.96875" stop-color="#9C31FE"/>
</linearGradient>
<linearGradient id="paint12_linear" x1="116.316" y1="237.375" x2="116.316" y2="245.6" gradientUnits="userSpaceOnUse">
<stop stop-color="#0CB0D3"/>
<stop offset="0.96875" stop-color="#9C31FE"/>
</linearGradient>
<linearGradient id="paint13_linear" x1="205.733" y1="236.597" x2="205.733" y2="246.513" gradientUnits="userSpaceOnUse">
<stop stop-color="#0CB0D3"/>
<stop offset="0.96875" stop-color="#9C31FE"/>
</linearGradient>
<linearGradient id="paint14_linear" x1="38" y1="220" x2="314" y2="220" gradientUnits="userSpaceOnUse">
<stop stop-color="#0CB0D3"/>
<stop offset="0.96875" stop-color="#9C31FE"/>
</linearGradient>
<clipPath id="clip0">
<rect width="323" height="425" fill="white"/>
</clipPath>
<clipPath id="clip1">
<rect width="47.3729" height="52" fill="white" transform="translate(90 272)"/>
</clipPath>
</defs>
</svg>
